<svg width="414.459596px" height="483.437999px" viewBox="0 0 414.459596 483.437999" version="1.1"
    xmlns="http://www.w3.org/2000/svg" xmlns:xlink="http://www.w3.org/1999/xlink">
    <defs>
        <linearGradient x1="50%" y1="80.8169049%" x2="76.9596626%" y2="98.3667464%" id="linearGradient-w8hzu_81cw-1">
            <stop stop-color="#4550F0" offset="0%"></stop>
            <stop stop-color="#AA8EF7" offset="100%"></stop>
        </linearGradient>
        <linearGradient x1="44.534356%" y1="1.8599266%" x2="53.5719332%" y2="98.0739327%"
            id="linearGradient-w8hzu_81cw-2">
            <stop stop-color="#3841ED" offset="0%"></stop>
            <stop stop-color="#AD8FF6" offset="100%"></stop>
        </linearGradient>
    </defs>
    <g id="Page-1" stroke="none" stroke-width="1" fill="none" fill-rule="evenodd">
        <g id="512x512" transform="translate(-48.572942, -14.195476)">
            <g id="编组-2" transform="translate(48.572942, 14.195476)">
                <g id="编组"
                    transform="translate(179.789693, 188.790038) rotate(36.000000) translate(-179.789693, -188.790038) translate(68.194157, 36.511621)">
                    <path
                        d="M0.545777933,6.1910537e-13 C43.474961,13.7847982 64.9395526,31.3025798 64.9395526,52.5533446 L64.9398967,56.766501 C64.9399349,57.0221218 64.9399764,57.2813354 64.940021,57.5441418 L64.9409291,61.7556948 L64.9410462,62.2064904 L64.9419996,65.5129559 L64.9426497,67.520926 C64.9427644,67.8627733 64.9428823,68.2082132 64.9430033,68.557246 L64.943768,70.6945557 L64.9440912,71.5625495 L64.9447732,73.3388974 C64.9448909,73.6394399 64.9450105,73.9422247 64.9451321,74.2472516 L64.9458858,76.1043204 C64.9462745,77.0463083 64.9466812,78.0084764 64.9471057,78.9908247 L64.9479787,80.9824282 C64.9612815,110.923667 64.9903357,158.625729 65.0351413,224.088616 L162.007946,222.233609 C196.825221,224.42439 217.174067,251.663365 223.054482,303.950531 L47.5121505,303.951714 C28.5833247,303.587755 15.2103475,297.989294 7.39321884,287.156332 C11.2545635,284.778762 13.8612619,280.261385 13.8612619,275.079834 C13.8612619,267.425998 8.17365687,261.221338 1.15764053,261.221338 C0.767500924,261.221338 0.381468946,261.240523 0.000294139499,261.278077 L0.00210958004,83.3421433 C0.160821561,58.1737777 0.341553144,30.4663365 0.544304331,0.219819575 L1.22298395,0.219 L0.545777933,6.1910537e-13 Z"
                        id="形状结合" fill="url(#linearGradient-w8hzu_81cw-1)"></path>
                    <path
                        d="M0.0027658651,0.21966255 C36.0048556,11.4421402 59.3114243,23.6531012 69.9224719,36.8525456 C73.4181102,42.0701676 75.1659293,48.9871178 75.1659293,57.6033963 L75.1659293,97.6718248 L75.2157785,271.262052 C75.0175378,278.453858 75.2981492,283.025546 76.057613,284.977117 C78.5521136,296.594571 90.6410262,303.94054 100.624238,303.9517 C100.624238,303.9517 37.6336459,307.687539 18.8182059,296.594571 C6.2745792,289.199258 0.0027658651,276.215611 0.0027658651,257.643628 L0.0027658651,0.21966255 Z"
                        id="路径" fill="url(#linearGradient-w8hzu_81cw-2)"></path>
                </g>
                <g id="编组"
                    transform="translate(236.789693, 294.790038) rotate(-146.000000) translate(-236.789693, -294.790038) translate(125.194157, 142.511621)">
                    <path
                        d="M0.545777933,6.1910537e-13 C43.474961,13.7847982 64.9395526,31.3025798 64.9395526,52.5533446 L64.9398967,56.766501 C64.9399349,57.0221218 64.9399764,57.2813354 64.940021,57.5441418 L64.9409291,61.7556948 L64.9410462,62.2064904 L64.9419996,65.5129559 L64.9426497,67.520926 C64.9427644,67.8627733 64.9428823,68.2082132 64.9430033,68.557246 L64.943768,70.6945557 L64.9440912,71.5625495 L64.9447732,73.3388974 C64.9448909,73.6394399 64.9450105,73.9422247 64.9451321,74.2472516 L64.9458858,76.1043204 C64.9462745,77.0463083 64.9466812,78.0084764 64.9471057,78.9908247 L64.9479787,80.9824282 C64.9612815,110.923667 64.9903357,158.625729 65.0351413,224.088616 L162.007946,222.233609 C196.825221,224.42439 217.174067,251.663365 223.054482,303.950531 L47.5121505,303.951714 C28.5833247,303.587755 15.2103475,297.989294 7.39321884,287.156332 C11.2545635,284.778762 13.8612619,280.261385 13.8612619,275.079834 C13.8612619,267.425998 8.17365687,261.221338 1.15764053,261.221338 C0.767500924,261.221338 0.381468946,261.240523 0.000294139499,261.278077 L0.00210958004,83.3421433 C0.160821561,58.1737777 0.341553144,30.4663365 0.544304331,0.219819575 L1.22298395,0.219 L0.545777933,6.1910537e-13 Z"
                        id="形状结合" fill="url(#linearGradient-w8hzu_81cw-1)"></path>
                    <path
                        d="M0.0027658651,0.21966255 C36.0048556,11.4421402 59.3114243,23.6531012 69.9224719,36.8525456 C73.4181102,42.0701676 75.1659293,48.9871178 75.1659293,57.6033963 L75.1659293,97.6718248 L75.2157785,271.262052 C75.0175378,278.453858 75.2981492,283.025546 76.057613,284.977117 C78.5521136,296.594571 90.6410262,303.94054 100.624238,303.9517 C100.624238,303.9517 37.6336459,307.687539 18.8182059,296.594571 C6.2745792,289.199258 0.0027658651,276.215611 0.0027658651,257.643628 L0.0027658651,0.21966255 Z"
                        id="路径" fill="url(#linearGradient-w8hzu_81cw-2)"></path>
                </g>
            </g>
        </g>
    </g>
</svg>