
<svg width="400px" height="400px" viewBox="0 0 400 400" version="1.1" xmlns="http://www.w3.org/2000/svg" xmlns:xlink="http://www.w3.org/1999/xlink">
    <defs>
        <linearGradient x1="42.0042318%" y1="73.8188463%" x2="76.926363%" y2="98.3667464%" id="linearGradient-202pjecbjv-1">
            <stop stop-color="#E7EDF9" offset="0%"></stop>
            <stop stop-color="#FFFFFF" offset="100%"></stop>
        </linearGradient>
        <linearGradient x1="44.534356%" y1="1.8599266%" x2="53.5719332%" y2="98.0739327%" id="linearGradient-202pjecbjv-2">
            <stop stop-color="#FAFCFF" offset="0%"></stop>
            <stop stop-color="#FFFFFF" offset="100%"></stop>
        </linearGradient>
        <linearGradient x1="42.0042318%" y1="73.8188463%" x2="76.926363%" y2="98.3667464%" id="linearGradient-202pjecbjv-3">
            <stop stop-color="#EAEDF5" offset="0%"></stop>
            <stop stop-color="#FFFFFF" offset="100%"></stop>
        </linearGradient>
        <linearGradient x1="44.534356%" y1="1.8599266%" x2="53.5719332%" y2="98.0739327%" id="linearGradient-202pjecbjv-4">
            <stop stop-color="#FEFEFF" offset="0%"></stop>
            <stop stop-color="#FFFFFF" offset="100%"></stop>
        </linearGradient>
    </defs>
    <g id="Page-1" stroke="none" stroke-width="1" fill="none" fill-rule="evenodd">
        <g id="512x512备份" transform="translate(-56.000000, -56.000000)">
            <g id="编组-3" transform="translate(56.000000, 56.000000)">
                <path d="M132.330937,134.055523 C164.499953,144.385172 180.584461,157.512134 180.584461,173.436411 L180.585177,179.021367 L180.585327,179.668706 L180.586072,182.419599 L180.586294,183.147705 L180.587046,185.428947 L180.587326,186.221667 L180.587927,187.855569 L180.58825,188.69675 L180.588937,190.427572 L180.589303,191.317213 L180.590076,193.144956 L180.590907,195.037313 C180.591337,195.999645 180.591788,196.986207 180.592261,197.996999 L180.593235,200.05089 L180.593899,201.420568 C180.594237,202.112233 180.594584,202.814134 180.59494,203.526272 L180.595665,204.964199 C180.595788,205.206129 180.595911,205.449196 180.596036,205.6934 L180.596797,207.172276 C180.597183,207.918538 180.597579,208.675038 180.597984,209.441776 L180.598805,210.9889 C180.599499,212.289545 180.600219,213.618626 180.600964,214.976145 L180.60187,216.618816 C180.613806,238.150995 180.631879,266.603555 180.65609,301.976495 L253.322734,300.586444 C279.413069,302.228107 294.661489,322.639629 299.067993,361.821009 L167.525224,361.821967 C153.341173,361.549239 143.320237,357.354188 137.462417,349.236814 C140.355813,347.454286 142.308905,344.069364 142.308905,340.186802 C142.308905,334.451394 138.046894,329.801928 132.789437,329.801928 C132.497432,329.801928 132.208498,329.81627 131.923195,329.844345 L131.922917,196.606711 C132.041998,177.720496 132.177637,156.924972 132.329834,134.220139 L132.838245,134.219523 L132.330937,134.055523 Z" id="形状结合" fill="url(#linearGradient-202pjecbjv-1)" transform="translate(215.495455, 247.938745) rotate(-144.000000) translate(-215.495455, -247.938745) "></path>
                <path d="M217.087155,161.623413 C244.065348,170.032985 261.530143,179.183278 269.481539,189.074291 C272.100999,192.98412 273.410728,198.167342 273.410728,204.623957 L273.410728,234.649264 L273.448083,364.729231 C273.299531,370.118415 273.509807,373.544213 274.078912,375.006625 C275.948168,383.712172 285.007004,389.21688 292.487931,389.225243 C292.487931,389.225243 245.285884,392.024697 231.186519,383.712172 C221.786943,378.170489 217.087155,368.441183 217.087155,354.524254 L217.087155,161.623413 Z" id="路径" fill="url(#linearGradient-202pjecbjv-2)" transform="translate(254.787543, 275.651057) rotate(-144.000000) translate(-254.787543, -275.651057) "></path>
                <g id="编组" transform="translate(184.628720, 158.755322) rotate(-323.000000) translate(-184.628720, -158.755322) translate(101.056181, 44.645376)">
                    <path d="M0.408020592,1.1272891e-12 C32.5770361,10.3296489 48.6615438,23.4566116 48.6615438,39.3808881 L48.6622601,44.9658436 L48.6624105,45.6131831 L48.6631555,48.3640758 L48.6633775,49.0921825 L48.6641296,51.3734236 L48.664409,52.1661442 L48.6650107,53.8000457 L48.665333,54.6412266 L48.6660207,56.3720489 L48.666386,57.2616902 L48.6671596,59.0894331 L48.667752,60.4454169 C48.6678533,60.6742055 48.6679557,60.9043898 48.6680594,61.1359697 L48.6686964,62.5421972 C48.6688051,62.7793597 48.668915,63.017918 48.6690261,63.2578718 L48.6697077,64.714343 C48.6698238,64.9598795 48.6699411,65.2068117 48.6700596,65.4551395 L48.6707858,66.9618544 C48.6709093,67.2157648 48.671034,67.471071 48.67116,67.7277727 L48.6719307,69.2847313 C48.6723235,70.0715845 48.6727274,70.8709987 48.6731425,71.6829737 L48.6739874,73.3236718 C48.6855951,95.699192 48.7053238,127.231625 48.7331733,167.920972 L121.399817,166.530921 C147.490152,168.172584 162.738572,188.584106 167.145076,227.765486 L35.602307,227.766444 C21.4182558,227.493717 11.3973203,223.298665 5.53950061,215.181291 C8.43289671,213.398763 10.3859885,210.013841 10.3859885,206.131279 C10.3859885,200.395871 6.12397738,195.746405 0.866520289,195.746405 C0.574515502,195.746405 0.285581476,195.760748 0.000277885178,195.788822 L-6.8077621e-13,62.5511883 C0.119080938,43.6649729 0.254719957,22.8694489 0.406917056,0.164616187 L0.915288881,0.164 L0.408020592,1.1272891e-12 Z" id="形状结合" fill="url(#linearGradient-202pjecbjv-3)"></path>
                    <path d="M0.0011140924,0.164604296 C26.979307,8.57417629 44.4441016,17.7244691 52.3954981,27.6154826 C55.0149573,31.5253116 56.3246869,36.7085334 56.3246869,43.1651482 L56.3246869,73.190455 L56.3620414,203.270422 C56.2134895,208.659607 56.423766,212.085405 56.9928707,213.547816 C58.8621266,222.253363 67.9209623,227.758071 75.4018898,227.766434 C75.4018898,227.766434 28.1998422,230.565888 14.1004781,222.253363 C4.70090211,216.711681 0.0011140924,206.982375 0.0011140924,193.065445 L0.0011140924,0.164604296 Z" id="路径" fill="url(#linearGradient-202pjecbjv-4)"></path>
                </g>
            </g>
        </g>
    </g>
</svg>